<svg width="258" height="45" viewBox="0 0 258 45" fill="none" xmlns="http://www.w3.org/2000/svg">
<path d="M0.5 7C0.5 3.41015 3.41015 0.5 7 0.5H251C254.59 0.5 257.5 3.41015 257.5 7V38C257.5 41.5899 254.59 44.5 251 44.5H7C3.41015 44.5 0.5 41.5899 0.5 38V7Z" stroke="#0584FE"/>
<path d="M59.008 22.7C59.008 20.6 59.452 18.992 60.34 17.876C61.228 16.748 62.494 16.184 64.138 16.184C65.026 16.184 65.794 16.34 66.442 16.652C67.09 16.964 67.624 17.408 68.044 17.984C68.476 18.548 68.794 19.232 68.998 20.036C69.202 20.828 69.304 21.716 69.304 22.7C69.304 24.8 68.854 26.414 67.954 27.542C67.066 28.658 65.794 29.216 64.138 29.216C63.262 29.216 62.5 29.06 61.852 28.748C61.216 28.436 60.682 27.998 60.25 27.434C59.83 26.858 59.518 26.174 59.314 25.382C59.11 24.578 59.008 23.684 59.008 22.7ZM60.592 22.7C60.592 23.396 60.658 24.056 60.79 24.68C60.934 25.304 61.15 25.856 61.438 26.336C61.726 26.804 62.092 27.182 62.536 27.47C62.992 27.746 63.526 27.884 64.138 27.884C65.254 27.884 66.13 27.464 66.766 26.624C67.402 25.772 67.72 24.464 67.72 22.7C67.72 22.016 67.648 21.362 67.504 20.738C67.372 20.102 67.156 19.55 66.856 19.082C66.568 18.602 66.196 18.224 65.74 17.948C65.296 17.66 64.762 17.516 64.138 17.516C63.034 17.516 62.164 17.942 61.528 18.794C60.904 19.634 60.592 20.936 60.592 22.7ZM82.6275 28.406C82.2675 28.67 81.8415 28.868 81.3495 29C80.8575 29.144 80.3415 29.216 79.8015 29.216C79.1055 29.216 78.5175 29.108 78.0375 28.892C77.5575 28.664 77.1615 28.346 76.8495 27.938C76.5495 27.518 76.3275 27.02 76.1835 26.444C76.0515 25.856 75.9855 25.208 75.9855 24.5C75.9855 22.976 76.3215 21.812 76.9935 21.008C77.6655 20.192 78.6315 19.784 79.8915 19.784C80.4675 19.784 80.9535 19.832 81.3495 19.928C81.7575 20.012 82.1235 20.138 82.4475 20.306L82.0335 21.548C81.7575 21.392 81.4515 21.272 81.1155 21.188C80.7795 21.092 80.4195 21.044 80.0355 21.044C78.3315 21.044 77.4795 22.196 77.4795 24.5C77.4795 24.956 77.5215 25.394 77.6055 25.814C77.7015 26.222 77.8515 26.588 78.0555 26.912C78.2715 27.224 78.5475 27.476 78.8835 27.668C79.2315 27.86 79.6575 27.956 80.1615 27.956C80.5935 27.956 80.9775 27.89 81.3135 27.758C81.6615 27.626 81.9435 27.476 82.1595 27.308L82.6275 28.406ZM90.7587 28.28C90.3987 28.568 89.9427 28.796 89.3907 28.964C88.8507 29.132 88.2747 29.216 87.6627 29.216C86.9787 29.216 86.3847 29.108 85.8807 28.892C85.3767 28.664 84.9627 28.346 84.6387 27.938C84.3147 27.518 84.0747 27.02 83.9187 26.444C83.7627 25.868 83.6847 25.22 83.6847 24.5C83.6847 22.964 84.0267 21.794 84.7107 20.99C85.3947 20.186 86.3727 19.784 87.6447 19.784C88.0527 19.784 88.4607 19.832 88.8687 19.928C89.2767 20.012 89.6427 20.18 89.9667 20.432C90.2907 20.684 90.5547 21.044 90.7587 21.512C90.9627 21.968 91.0647 22.574 91.0647 23.33C91.0647 23.726 91.0287 24.164 90.9567 24.644H85.1787C85.1787 25.172 85.2327 25.64 85.3407 26.048C85.4487 26.456 85.6167 26.804 85.8447 27.092C86.0727 27.368 86.3667 27.584 86.7267 27.74C87.0987 27.884 87.5487 27.956 88.0767 27.956C88.4847 27.956 88.8927 27.884 89.3007 27.74C89.7087 27.596 90.0147 27.428 90.2187 27.236L90.7587 28.28ZM87.6627 21.044C86.9547 21.044 86.3847 21.23 85.9527 21.602C85.5327 21.974 85.2807 22.61 85.1967 23.51H89.6607C89.6607 22.598 89.4867 21.962 89.1387 21.602C88.7907 21.23 88.2987 21.044 87.6627 21.044ZM93.3294 20H94.3194L94.5894 21.08H94.6614C94.9374 20.66 95.2914 20.342 95.7234 20.126C96.1674 19.898 96.6714 19.784 97.2354 19.784C98.4354 19.784 99.3294 20.138 99.9174 20.846C100.505 21.554 100.799 22.712 100.799 24.32C100.799 25.076 100.697 25.76 100.493 26.372C100.301 26.972 100.025 27.482 99.6654 27.902C99.3054 28.322 98.8674 28.646 98.3514 28.874C97.8474 29.102 97.2834 29.216 96.6594 29.216C96.2154 29.216 95.8614 29.186 95.5974 29.126C95.3454 29.078 95.0694 28.988 94.7694 28.856V32.6H93.3294V20ZM96.9654 21.044C96.3534 21.044 95.8674 21.206 95.5074 21.53C95.1594 21.842 94.9134 22.322 94.7694 22.97V27.434C94.9854 27.602 95.2314 27.734 95.5074 27.83C95.7834 27.914 96.1494 27.956 96.6054 27.956C97.4334 27.956 98.0874 27.65 98.5674 27.038C99.0594 26.414 99.3054 25.502 99.3054 24.302C99.3054 23.81 99.2634 23.366 99.1794 22.97C99.0954 22.562 98.9574 22.22 98.7654 21.944C98.5854 21.656 98.3454 21.434 98.0454 21.278C97.7574 21.122 97.3974 21.044 96.9654 21.044ZM103.068 20.018C103.488 19.994 103.926 19.964 104.382 19.928C104.85 19.892 105.426 19.874 106.11 19.874C107.298 19.874 108.15 20.06 108.666 20.432C109.182 20.792 109.44 21.344 109.44 22.088C109.44 22.508 109.314 22.922 109.062 23.33C108.822 23.726 108.42 24.02 107.856 24.212V24.284C108.564 24.416 109.062 24.662 109.35 25.022C109.638 25.382 109.782 25.862 109.782 26.462C109.782 27.398 109.446 28.076 108.774 28.496C108.102 28.916 107.094 29.126 105.75 29.126C105.246 29.126 104.778 29.108 104.346 29.072C103.914 29.048 103.488 29.018 103.068 28.982V20.018ZM104.508 27.794C104.736 27.818 104.958 27.836 105.174 27.848C105.402 27.86 105.666 27.866 105.966 27.866C106.77 27.866 107.364 27.752 107.748 27.524C108.144 27.296 108.342 26.906 108.342 26.354C108.342 25.922 108.174 25.574 107.838 25.31C107.514 25.034 106.932 24.896 106.092 24.896H104.508V27.794ZM106.272 23.798C106.488 23.798 106.698 23.762 106.902 23.69C107.106 23.618 107.286 23.522 107.442 23.402C107.61 23.27 107.742 23.12 107.838 22.952C107.946 22.784 108 22.604 108 22.412C108 21.932 107.856 21.602 107.568 21.422C107.28 21.23 106.776 21.134 106.056 21.134C105.672 21.134 105.366 21.14 105.138 21.152C104.922 21.164 104.712 21.176 104.508 21.188V23.798H106.272ZM117.666 23.672L117.72 22.556H117.666L116.928 23.708L112.878 29H112.05V20H113.49V25.49L113.436 26.552H113.508L114.21 25.436L118.26 20H119.106V29H117.666V23.672ZM128.014 28.406C127.654 28.67 127.228 28.868 126.736 29C126.244 29.144 125.728 29.216 125.188 29.216C124.492 29.216 123.904 29.108 123.424 28.892C122.944 28.664 122.548 28.346 122.236 27.938C121.936 27.518 121.714 27.02 121.57 26.444C121.438 25.856 121.372 25.208 121.372 24.5C121.372 22.976 121.708 21.812 122.38 21.008C123.052 20.192 124.018 19.784 125.278 19.784C125.854 19.784 126.34 19.832 126.736 19.928C127.144 20.012 127.51 20.138 127.834 20.306L127.42 21.548C127.144 21.392 126.838 21.272 126.502 21.188C126.166 21.092 125.806 21.044 125.422 21.044C123.718 21.044 122.866 22.196 122.866 24.5C122.866 24.956 122.908 25.394 122.992 25.814C123.088 26.222 123.238 26.588 123.442 26.912C123.658 27.224 123.934 27.476 124.27 27.668C124.618 27.86 125.044 27.956 125.548 27.956C125.98 27.956 126.364 27.89 126.7 27.758C127.048 27.626 127.33 27.476 127.546 27.308L128.014 28.406ZM136.145 28.28C135.785 28.568 135.329 28.796 134.777 28.964C134.237 29.132 133.661 29.216 133.049 29.216C132.365 29.216 131.771 29.108 131.267 28.892C130.763 28.664 130.349 28.346 130.025 27.938C129.701 27.518 129.461 27.02 129.305 26.444C129.149 25.868 129.071 25.22 129.071 24.5C129.071 22.964 129.413 21.794 130.097 20.99C130.781 20.186 131.759 19.784 133.031 19.784C133.439 19.784 133.847 19.832 134.255 19.928C134.663 20.012 135.029 20.18 135.353 20.432C135.677 20.684 135.941 21.044 136.145 21.512C136.349 21.968 136.451 22.574 136.451 23.33C136.451 23.726 136.415 24.164 136.343 24.644H130.565C130.565 25.172 130.619 25.64 130.727 26.048C130.835 26.456 131.003 26.804 131.231 27.092C131.459 27.368 131.753 27.584 132.113 27.74C132.485 27.884 132.935 27.956 133.463 27.956C133.871 27.956 134.279 27.884 134.687 27.74C135.095 27.596 135.401 27.428 135.605 27.236L136.145 28.28ZM133.049 21.044C132.341 21.044 131.771 21.23 131.339 21.602C130.919 21.974 130.667 22.61 130.583 23.51H135.047C135.047 22.598 134.873 21.962 134.525 21.602C134.177 21.23 133.685 21.044 133.049 21.044Z" fill="black"/>
<path d="M145.405 31.3C144.945 30.82 144.555 30.29 144.235 29.71C143.915 29.14 143.655 28.555 143.455 27.955C143.265 27.345 143.125 26.735 143.035 26.125C142.945 25.505 142.9 24.915 142.9 24.355C142.9 23.805 142.945 23.225 143.035 22.615C143.125 22.005 143.27 21.395 143.47 20.785C143.67 20.165 143.93 19.56 144.25 18.97C144.58 18.38 144.98 17.83 145.45 17.32L146.17 17.845C145.77 18.355 145.435 18.885 145.165 19.435C144.905 19.975 144.695 20.525 144.535 21.085C144.375 21.645 144.26 22.205 144.19 22.765C144.13 23.315 144.1 23.845 144.1 24.355C144.1 24.835 144.135 25.36 144.205 25.93C144.285 26.49 144.405 27.055 144.565 27.625C144.735 28.185 144.95 28.735 145.21 29.275C145.48 29.815 145.8 30.305 146.17 30.745L145.405 31.3ZM147.824 26.89H149.924V19.63L150.074 18.745L149.474 19.45L147.824 20.635L147.254 19.87L150.554 17.32H151.094V26.89H153.149V28H147.824V26.89ZM165.727 23.545L165.817 22.12H165.742L165.202 23.275L163.387 26.215H162.967L161.077 23.275L160.582 22.12H160.522L160.642 23.53V28H159.532V20.5H160.717L162.817 23.86L163.252 24.73H163.282L163.732 23.83L165.697 20.5H166.897V28H165.727V23.545ZM173.88 23.56L173.925 22.63H173.88L173.265 23.59L169.89 28H169.2V20.5H170.4V25.075L170.355 25.96H170.415L171 25.03L174.375 20.5H175.08V28H173.88V23.56ZM181.978 24.685H178.588V28H177.388V20.5H178.588V23.635H181.978V20.5H183.178V28H181.978V24.685ZM185.069 27.31C185.069 27.04 185.144 26.83 185.294 26.68C185.454 26.52 185.664 26.44 185.924 26.44C186.194 26.44 186.409 26.52 186.569 26.68C186.729 26.83 186.809 27.04 186.809 27.31C186.809 27.57 186.729 27.78 186.569 27.94C186.409 28.1 186.194 28.18 185.924 28.18C185.664 28.18 185.454 28.1 185.294 27.94C185.144 27.78 185.069 27.57 185.069 27.31ZM197.059 19.885C197.059 20.415 196.959 20.96 196.759 21.52C196.569 22.07 196.314 22.625 195.994 23.185C195.684 23.745 195.334 24.295 194.944 24.835C194.554 25.365 194.164 25.87 193.774 26.35L193.039 26.995V27.055L193.999 26.89H197.269V28H191.299V27.565C191.519 27.335 191.784 27.05 192.094 26.71C192.404 26.37 192.724 25.995 193.054 25.585C193.394 25.165 193.724 24.725 194.044 24.265C194.374 23.795 194.669 23.32 194.929 22.84C195.199 22.36 195.414 21.885 195.574 21.415C195.734 20.945 195.814 20.5 195.814 20.08C195.814 19.59 195.674 19.185 195.394 18.865C195.114 18.535 194.689 18.37 194.119 18.37C193.739 18.37 193.369 18.45 193.009 18.61C192.649 18.76 192.339 18.935 192.079 19.135L191.584 18.28C191.934 17.98 192.349 17.745 192.829 17.575C193.309 17.405 193.824 17.32 194.374 17.32C194.804 17.32 195.184 17.385 195.514 17.515C195.844 17.635 196.124 17.81 196.354 18.04C196.584 18.27 196.759 18.545 196.879 18.865C196.999 19.175 197.059 19.515 197.059 19.885ZM199.188 22.75C199.188 20.95 199.478 19.595 200.058 18.685C200.648 17.775 201.503 17.32 202.623 17.32C203.833 17.32 204.708 17.77 205.248 18.67C205.798 19.56 206.073 20.92 206.073 22.75C206.073 24.55 205.778 25.905 205.188 26.815C204.608 27.725 203.753 28.18 202.623 28.18C201.433 28.18 200.563 27.705 200.013 26.755C199.463 25.805 199.188 24.47 199.188 22.75ZM200.433 22.75C200.433 23.4 200.473 23.995 200.553 24.535C200.643 25.065 200.778 25.525 200.958 25.915C201.138 26.295 201.363 26.595 201.633 26.815C201.913 27.025 202.243 27.13 202.623 27.13C203.383 27.13 203.938 26.78 204.288 26.08C204.648 25.37 204.828 24.26 204.828 22.75C204.828 22.11 204.788 21.52 204.708 20.98C204.638 20.44 204.513 19.975 204.333 19.585C204.163 19.195 203.938 18.895 203.658 18.685C203.378 18.475 203.033 18.37 202.623 18.37C201.873 18.37 201.318 18.725 200.958 19.435C200.608 20.145 200.433 21.25 200.433 22.75ZM216.986 27.505C216.686 27.725 216.331 27.89 215.921 28C215.511 28.12 215.081 28.18 214.631 28.18C214.051 28.18 213.561 28.09 213.161 27.91C212.761 27.72 212.431 27.455 212.171 27.115C211.921 26.765 211.736 26.35 211.616 25.87C211.506 25.38 211.451 24.84 211.451 24.25C211.451 22.98 211.731 22.01 212.291 21.34C212.851 20.66 213.656 20.32 214.706 20.32C215.186 20.32 215.591 20.36 215.921 20.44C216.261 20.51 216.566 20.615 216.836 20.755L216.491 21.79C216.261 21.66 216.006 21.56 215.726 21.49C215.446 21.41 215.146 21.37 214.826 21.37C213.406 21.37 212.696 22.33 212.696 24.25C212.696 24.63 212.731 24.995 212.801 25.345C212.881 25.685 213.006 25.99 213.176 26.26C213.356 26.52 213.586 26.73 213.866 26.89C214.156 27.05 214.511 27.13 214.931 27.13C215.291 27.13 215.611 27.075 215.891 26.965C216.181 26.855 216.416 26.73 216.596 26.59L216.986 27.505ZM223.762 27.4C223.462 27.64 223.082 27.83 222.622 27.97C222.172 28.11 221.692 28.18 221.182 28.18C220.612 28.18 220.117 28.09 219.697 27.91C219.277 27.72 218.932 27.455 218.662 27.115C218.392 26.765 218.192 26.35 218.062 25.87C217.932 25.39 217.867 24.85 217.867 24.25C217.867 22.97 218.152 21.995 218.722 21.325C219.292 20.655 220.107 20.32 221.167 20.32C221.507 20.32 221.847 20.36 222.187 20.44C222.527 20.51 222.832 20.65 223.102 20.86C223.372 21.07 223.592 21.37 223.762 21.76C223.932 22.14 224.017 22.645 224.017 23.275C224.017 23.605 223.987 23.97 223.927 24.37H219.112C219.112 24.81 219.157 25.2 219.247 25.54C219.337 25.88 219.477 26.17 219.667 26.41C219.857 26.64 220.102 26.82 220.402 26.95C220.712 27.07 221.087 27.13 221.527 27.13C221.867 27.13 222.207 27.07 222.547 26.95C222.887 26.83 223.142 26.69 223.312 26.53L223.762 27.4ZM221.182 21.37C220.592 21.37 220.117 21.525 219.757 21.835C219.407 22.145 219.197 22.675 219.127 23.425H222.847C222.847 22.665 222.702 22.135 222.412 21.835C222.122 21.525 221.712 21.37 221.182 21.37ZM227.794 24.625H227.104V28H225.904V20.5H227.104V23.89L227.749 23.68L230.149 20.5H231.454L229.129 23.515L228.499 24.01L229.279 24.61L231.784 28H230.299L227.794 24.625ZM232.707 17.32C233.167 17.8 233.557 18.33 233.877 18.91C234.197 19.48 234.452 20.07 234.642 20.68C234.842 21.28 234.987 21.89 235.077 22.51C235.167 23.12 235.212 23.705 235.212 24.265C235.212 24.815 235.167 25.395 235.077 26.005C234.987 26.615 234.842 27.23 234.642 27.85C234.442 28.46 234.177 29.06 233.847 29.65C233.527 30.24 233.132 30.79 232.662 31.3L231.942 30.775C232.342 30.265 232.677 29.735 232.947 29.185C233.217 28.635 233.427 28.08 233.577 27.52C233.737 26.96 233.847 26.405 233.907 25.855C233.977 25.305 234.012 24.775 234.012 24.265C234.012 23.785 233.972 23.265 233.892 22.705C233.812 22.145 233.687 21.58 233.517 21.01C233.357 20.44 233.147 19.885 232.887 19.345C232.627 18.805 232.312 18.315 231.942 17.875L232.707 17.32Z" fill="#1253A2"/>
<g clip-path="url(#clip0_1_86)">
<path fill-rule="evenodd" clip-rule="evenodd" d="M22.5258 31.2492C21.618 30.0743 21.1641 27.1905 21.1641 22.5976C21.1641 18.0047 21.5286 15.256 22.2575 14.3514C22.7522 13.6247 23.2242 13.1221 23.6738 12.8436C24.1233 12.5651 24.7153 12.4085 25.4497 12.3737C30.5243 12.1241 34.3824 11.9995 37.0239 12C39.6655 12.0005 43.1675 12.1265 47.5299 12.378C48.2271 12.5128 48.8478 12.7736 49.392 13.1604C49.9363 13.5471 50.3022 14.041 50.4897 14.6419C51.0955 16.0412 51.3984 18.5288 51.3984 22.1049C51.3984 25.6809 51.1736 28.2829 50.7239 29.9108C50.4927 30.803 50.0488 31.5145 49.392 32.045C48.7353 32.5756 47.852 32.8344 46.7423 32.8215C41.892 33.0624 38.2543 33.1787 35.8292 33.1702C33.4042 33.1618 29.9305 33.0209 25.4084 32.7474C24.7907 32.7474 24.2649 32.6434 23.831 32.4353C23.3971 32.2272 22.962 31.8318 22.5258 31.2492Z" stroke="#1253A2"/>
<path fill-rule="evenodd" clip-rule="evenodd" d="M33.2152 18.037L33.219 18.04L41.3701 22.3065L40.3739 22.7778L33.2089 26.4787L33.2149 18.038L33.2152 18.037Z" fill="#1253A2"/>
</g>
<defs>
<clipPath id="clip0_1_86">
<rect width="32.25" height="23" fill="white" transform="translate(20.1562 11)"/>
</clipPath>
</defs>
</svg>
