<svg width="403" height="16" viewBox="0 0 403 16" fill="none" xmlns="http://www.w3.org/2000/svg">
<path d="M5.98 4.862H2.184V13H1.105V3.9H5.98V4.862ZM8.91597 7.41H7.03097C7.00497 7.774 6.97897 8.16833 6.95297 8.593C6.92697 9.009 6.88797 9.42933 6.83597 9.854C6.78397 10.27 6.71464 10.673 6.62797 11.063C6.5413 11.4443 6.42864 11.7823 6.28997 12.077C6.15997 12.3717 5.9953 12.61 5.79597 12.792C5.6053 12.9653 5.37564 13.052 5.10697 13.052C4.9423 13.052 4.7993 13.0433 4.67797 13.026C4.55664 13.0087 4.4483 12.9783 4.35297 12.935L4.50897 12.064C4.61297 12.0987 4.72564 12.116 4.84697 12.116C5.0203 12.116 5.1763 12.0423 5.31497 11.895C5.45364 11.7477 5.57497 11.4703 5.67897 11.063C5.78297 10.647 5.86964 10.075 5.93897 9.347C6.0083 8.619 6.05597 7.67 6.08197 6.5H9.95597V13H8.91597V7.41ZM11.8531 6.981C12.1824 6.78167 12.5637 6.63433 12.9971 6.539C13.4391 6.44367 13.8984 6.396 14.3751 6.396C14.8257 6.396 15.1854 6.45667 15.4541 6.578C15.7314 6.69933 15.9394 6.85967 16.0781 7.059C16.2254 7.24967 16.3207 7.462 16.3641 7.696C16.4161 7.93 16.4421 8.164 16.4421 8.398C16.4421 8.918 16.4291 9.425 16.4031 9.919C16.3771 10.413 16.3641 10.881 16.3641 11.323C16.3641 11.6437 16.3771 11.947 16.4031 12.233C16.4291 12.519 16.4767 12.7833 16.5461 13.026H15.7791L15.5061 12.116H15.4411C15.3631 12.2373 15.2634 12.3587 15.1421 12.48C15.0294 12.5927 14.8907 12.6967 14.7261 12.792C14.5614 12.8787 14.3707 12.9523 14.1541 13.013C13.9374 13.0737 13.6904 13.104 13.4131 13.104C13.1357 13.104 12.8757 13.0607 12.6331 12.974C12.3991 12.8873 12.1954 12.766 12.0221 12.61C11.8487 12.4453 11.7101 12.2503 11.6061 12.025C11.5107 11.7997 11.4631 11.544 11.4631 11.258C11.4631 10.8767 11.5411 10.5603 11.6971 10.309C11.8531 10.049 12.0697 9.84533 12.3471 9.698C12.6331 9.542 12.9711 9.43367 13.3611 9.373C13.7597 9.30367 14.1974 9.269 14.6741 9.269C14.7954 9.269 14.9124 9.269 15.0251 9.269C15.1464 9.269 15.2677 9.27767 15.3891 9.295C15.4151 9.035 15.4281 8.801 15.4281 8.593C15.4281 8.11633 15.3327 7.78267 15.1421 7.592C14.9514 7.40133 14.6047 7.306 14.1021 7.306C13.9547 7.306 13.7944 7.319 13.6211 7.345C13.4564 7.36233 13.2831 7.39267 13.1011 7.436C12.9277 7.47067 12.7587 7.51833 12.5941 7.579C12.4381 7.631 12.2994 7.69167 12.1781 7.761L11.8531 6.981ZM13.6991 12.194C13.9417 12.194 14.1584 12.1637 14.3491 12.103C14.5397 12.0337 14.7044 11.9513 14.8431 11.856C14.9817 11.752 15.0944 11.6393 15.1811 11.518C15.2764 11.3967 15.3457 11.2797 15.3891 11.167V10.088C15.2677 10.0793 15.1421 10.075 15.0121 10.075C14.8907 10.0663 14.7694 10.062 14.6481 10.062C14.3794 10.062 14.1151 10.0793 13.8551 10.114C13.6037 10.14 13.3784 10.1963 13.1791 10.283C12.9884 10.361 12.8324 10.4737 12.7111 10.621C12.5984 10.7597 12.5421 10.9373 12.5421 11.154C12.5421 11.4573 12.6504 11.7087 12.8671 11.908C13.0837 12.0987 13.3611 12.194 13.6991 12.194ZM18.4063 6.513C18.7096 6.49567 19.0259 6.474 19.3553 6.448C19.6933 6.422 20.1093 6.409 20.6033 6.409C21.4613 6.409 22.0766 6.54333 22.4493 6.812C22.8219 7.072 23.0083 7.47067 23.0083 8.008C23.0083 8.31133 22.9173 8.61033 22.7353 8.905C22.5619 9.191 22.2716 9.40333 21.8643 9.542V9.594C22.3756 9.68933 22.7353 9.867 22.9433 10.127C23.1513 10.387 23.2553 10.7337 23.2553 11.167C23.2553 11.843 23.0126 12.3327 22.5273 12.636C22.0419 12.9393 21.3139 13.091 20.3433 13.091C19.9793 13.091 19.6413 13.078 19.3293 13.052C19.0173 13.0347 18.7096 13.013 18.4063 12.987V6.513ZM19.4463 12.129C19.6109 12.1463 19.7713 12.1593 19.9273 12.168C20.0919 12.1767 20.2826 12.181 20.4993 12.181C21.0799 12.181 21.5089 12.0987 21.7863 11.934C22.0723 11.7693 22.2153 11.4877 22.2153 11.089C22.2153 10.777 22.0939 10.5257 21.8513 10.335C21.6173 10.1357 21.1969 10.036 20.5903 10.036H19.4463V12.129ZM20.7203 9.243C20.8763 9.243 21.0279 9.217 21.1753 9.165C21.3226 9.113 21.4526 9.04367 21.5653 8.957C21.6866 8.86167 21.7819 8.75333 21.8513 8.632C21.9293 8.51067 21.9683 8.38067 21.9683 8.242C21.9683 7.89533 21.8643 7.657 21.6563 7.527C21.4483 7.38833 21.0843 7.319 20.5643 7.319C20.2869 7.319 20.0659 7.32333 19.9013 7.332C19.7453 7.34067 19.5936 7.34933 19.4463 7.358V9.243H20.7203ZM28.8716 10.127H25.9336V13H24.8936V6.5H25.9336V9.217H28.8716V6.5H29.9116V13H28.8716V10.127ZM31.8101 6.981C32.1394 6.78167 32.5208 6.63433 32.9541 6.539C33.3961 6.44367 33.8554 6.396 34.3321 6.396C34.7828 6.396 35.1424 6.45667 35.4111 6.578C35.6884 6.69933 35.8964 6.85967 36.0351 7.059C36.1824 7.24967 36.2778 7.462 36.3211 7.696C36.3731 7.93 36.3991 8.164 36.3991 8.398C36.3991 8.918 36.3861 9.425 36.3601 9.919C36.3341 10.413 36.3211 10.881 36.3211 11.323C36.3211 11.6437 36.3341 11.947 36.3601 12.233C36.3861 12.519 36.4338 12.7833 36.5031 13.026H35.7361L35.4631 12.116H35.3981C35.3201 12.2373 35.2204 12.3587 35.0991 12.48C34.9864 12.5927 34.8478 12.6967 34.6831 12.792C34.5184 12.8787 34.3278 12.9523 34.1111 13.013C33.8944 13.0737 33.6474 13.104 33.3701 13.104C33.0928 13.104 32.8328 13.0607 32.5901 12.974C32.3561 12.8873 32.1524 12.766 31.9791 12.61C31.8058 12.4453 31.6671 12.2503 31.5631 12.025C31.4678 11.7997 31.4201 11.544 31.4201 11.258C31.4201 10.8767 31.4981 10.5603 31.6541 10.309C31.8101 10.049 32.0268 9.84533 32.3041 9.698C32.5901 9.542 32.9281 9.43367 33.3181 9.373C33.7168 9.30367 34.1544 9.269 34.6311 9.269C34.7524 9.269 34.8694 9.269 34.9821 9.269C35.1034 9.269 35.2248 9.27767 35.3461 9.295C35.3721 9.035 35.3851 8.801 35.3851 8.593C35.3851 8.11633 35.2898 7.78267 35.0991 7.592C34.9084 7.40133 34.5618 7.306 34.0591 7.306C33.9118 7.306 33.7514 7.319 33.5781 7.345C33.4134 7.36233 33.2401 7.39267 33.0581 7.436C32.8848 7.47067 32.7158 7.51833 32.5511 7.579C32.3951 7.631 32.2564 7.69167 32.1351 7.761L31.8101 6.981ZM33.6561 12.194C33.8988 12.194 34.1154 12.1637 34.3061 12.103C34.4968 12.0337 34.6614 11.9513 34.8001 11.856C34.9388 11.752 35.0514 11.6393 35.1381 11.518C35.2334 11.3967 35.3028 11.2797 35.3461 11.167V10.088C35.2248 10.0793 35.0991 10.075 34.9691 10.075C34.8478 10.0663 34.7264 10.062 34.6051 10.062C34.3364 10.062 34.0721 10.0793 33.8121 10.114C33.5608 10.14 33.3354 10.1963 33.1361 10.283C32.9454 10.361 32.7894 10.4737 32.6681 10.621C32.5554 10.7597 32.4991 10.9373 32.4991 11.154C32.4991 11.4573 32.6074 11.7087 32.8241 11.908C33.0408 12.0987 33.3181 12.194 33.6561 12.194ZM41.6003 10.309L40.5993 10.465L38.8833 13H37.6223L39.1823 10.777L39.7023 10.296C39.2516 10.2267 38.866 10.0447 38.5453 9.75C38.2333 9.45533 38.0773 9.05667 38.0773 8.554C38.0773 8.164 38.1423 7.83033 38.2723 7.553C38.411 7.27567 38.606 7.046 38.8573 6.864C39.1086 6.682 39.4076 6.552 39.7543 6.474C40.101 6.38733 40.491 6.344 40.9243 6.344C41.245 6.344 41.544 6.36567 41.8213 6.409C42.0986 6.45233 42.3716 6.5 42.6403 6.552V13H41.6003V10.309ZM41.6003 7.384C41.4876 7.34067 41.362 7.31033 41.2233 7.293C41.0846 7.267 40.9633 7.254 40.8593 7.254C40.3046 7.254 39.88 7.35367 39.5853 7.553C39.2993 7.75233 39.1563 8.06867 39.1563 8.502C39.1563 8.892 39.308 9.19533 39.6113 9.412C39.9233 9.62 40.3306 9.724 40.8333 9.724C40.842 9.724 40.855 9.724 40.8723 9.724C40.8896 9.724 40.9243 9.724 40.9763 9.724C41.0283 9.724 41.102 9.724 41.1973 9.724C41.2926 9.71533 41.427 9.70667 41.6003 9.698V7.384ZM52.432 12.571C52.172 12.7617 51.8644 12.9047 51.509 13C51.1537 13.104 50.781 13.156 50.391 13.156C49.8884 13.156 49.4637 13.078 49.117 12.922C48.7704 12.7573 48.4844 12.5277 48.259 12.233C48.0424 11.9297 47.882 11.57 47.778 11.154C47.6827 10.7293 47.635 10.2613 47.635 9.75C47.635 8.64933 47.8777 7.80867 48.363 7.228C48.8484 6.63867 49.546 6.344 50.456 6.344C50.872 6.344 51.223 6.37867 51.509 6.448C51.8037 6.50867 52.068 6.59967 52.302 6.721L52.003 7.618C51.8037 7.50533 51.5827 7.41867 51.34 7.358C51.0974 7.28867 50.8374 7.254 50.56 7.254C49.3294 7.254 48.714 8.086 48.714 9.75C48.714 10.0793 48.7444 10.3957 48.805 10.699C48.8744 10.9937 48.9827 11.258 49.13 11.492C49.286 11.7173 49.4854 11.8993 49.728 12.038C49.9794 12.1767 50.287 12.246 50.651 12.246C50.963 12.246 51.2404 12.1983 51.483 12.103C51.7344 12.0077 51.938 11.8993 52.094 11.778L52.432 12.571ZM57.8082 7.41H55.7672V13H54.7272V7.41H52.6862V6.5H57.8082V7.41ZM58.8408 6.5H59.5558L59.7508 7.28H59.8028C60.0022 6.97667 60.2578 6.747 60.5698 6.591C60.8905 6.42633 61.2545 6.344 61.6618 6.344C62.5285 6.344 63.1742 6.59967 63.5988 7.111C64.0235 7.62233 64.2358 8.45867 64.2358 9.62C64.2358 10.166 64.1622 10.66 64.0148 11.102C63.8762 11.5353 63.6768 11.9037 63.4168 12.207C63.1568 12.5103 62.8405 12.7443 62.4678 12.909C62.1038 13.0737 61.6965 13.156 61.2458 13.156C60.9252 13.156 60.6695 13.1343 60.4788 13.091C60.2968 13.0563 60.0975 12.9913 59.8808 12.896V15.6H58.8408V6.5ZM61.4668 7.254C61.0248 7.254 60.6738 7.371 60.4138 7.605C60.1625 7.83033 59.9848 8.177 59.8808 8.645V11.869C60.0368 11.9903 60.2145 12.0857 60.4138 12.155C60.6132 12.2157 60.8775 12.246 61.2068 12.246C61.8048 12.246 62.2772 12.025 62.6238 11.583C62.9792 11.1323 63.1568 10.4737 63.1568 9.607C63.1568 9.25167 63.1265 8.931 63.0658 8.645C63.0052 8.35033 62.9055 8.10333 62.7668 7.904C62.6368 7.696 62.4635 7.53567 62.2468 7.423C62.0388 7.31033 61.7788 7.254 61.4668 7.254ZM65.77 6.981C66.0994 6.78167 66.4807 6.63433 66.914 6.539C67.356 6.44367 67.8154 6.396 68.292 6.396C68.7427 6.396 69.1024 6.45667 69.371 6.578C69.6484 6.69933 69.8564 6.85967 69.995 7.059C70.1424 7.24967 70.2377 7.462 70.281 7.696C70.333 7.93 70.359 8.164 70.359 8.398C70.359 8.918 70.346 9.425 70.32 9.919C70.294 10.413 70.281 10.881 70.281 11.323C70.281 11.6437 70.294 11.947 70.32 12.233C70.346 12.519 70.3937 12.7833 70.463 13.026H69.696L69.423 12.116H69.358C69.28 12.2373 69.1804 12.3587 69.059 12.48C68.9464 12.5927 68.8077 12.6967 68.643 12.792C68.4784 12.8787 68.2877 12.9523 68.071 13.013C67.8544 13.0737 67.6074 13.104 67.33 13.104C67.0527 13.104 66.7927 13.0607 66.55 12.974C66.316 12.8873 66.1124 12.766 65.939 12.61C65.7657 12.4453 65.627 12.2503 65.523 12.025C65.4277 11.7997 65.38 11.544 65.38 11.258C65.38 10.8767 65.458 10.5603 65.614 10.309C65.77 10.049 65.9867 9.84533 66.264 9.698C66.55 9.542 66.888 9.43367 67.278 9.373C67.6767 9.30367 68.1144 9.269 68.591 9.269C68.7124 9.269 68.8294 9.269 68.942 9.269C69.0634 9.269 69.1847 9.27767 69.306 9.295C69.332 9.035 69.345 8.801 69.345 8.593C69.345 8.11633 69.2497 7.78267 69.059 7.592C68.8684 7.40133 68.5217 7.306 68.019 7.306C67.8717 7.306 67.7114 7.319 67.538 7.345C67.3734 7.36233 67.2 7.39267 67.018 7.436C66.8447 7.47067 66.6757 7.51833 66.511 7.579C66.355 7.631 66.2164 7.69167 66.095 7.761L65.77 6.981ZM67.616 12.194C67.8587 12.194 68.0754 12.1637 68.266 12.103C68.4567 12.0337 68.6214 11.9513 68.76 11.856C68.8987 11.752 69.0114 11.6393 69.098 11.518C69.1934 11.3967 69.2627 11.2797 69.306 11.167V10.088C69.1847 10.0793 69.059 10.075 68.929 10.075C68.8077 10.0663 68.6864 10.062 68.565 10.062C68.2964 10.062 68.032 10.0793 67.772 10.114C67.5207 10.14 67.2954 10.1963 67.096 10.283C66.9054 10.361 66.7494 10.4737 66.628 10.621C66.5154 10.7597 66.459 10.9373 66.459 11.154C66.459 11.4573 66.5674 11.7087 66.784 11.908C67.0007 12.0987 67.278 12.194 67.616 12.194ZM76.3013 10.127H73.3633V13H72.3233V6.5H73.3633V9.217H76.3013V6.5H77.3413V13H76.3013V10.127ZM83.3998 9.152L83.4388 8.346H83.3998L82.8668 9.178L79.9418 13H79.3438V6.5H80.3838V10.465L80.3448 11.232H80.3968L80.9038 10.426L83.8288 6.5H84.4398V13H83.3998V9.152ZM92.2775 14.651H91.5755L91.3805 13H86.4405V6.5H87.4805V12.09H90.3015V6.5H91.3415V12.09H92.2775V14.651ZM93.4585 6.981C93.7879 6.78167 94.1692 6.63433 94.6025 6.539C95.0445 6.44367 95.5039 6.396 95.9805 6.396C96.4312 6.396 96.7909 6.45667 97.0595 6.578C97.3369 6.69933 97.5449 6.85967 97.6835 7.059C97.8309 7.24967 97.9262 7.462 97.9695 7.696C98.0215 7.93 98.0475 8.164 98.0475 8.398C98.0475 8.918 98.0345 9.425 98.0085 9.919C97.9825 10.413 97.9695 10.881 97.9695 11.323C97.9695 11.6437 97.9825 11.947 98.0085 12.233C98.0345 12.519 98.0822 12.7833 98.1515 13.026H97.3845L97.1115 12.116H97.0465C96.9685 12.2373 96.8689 12.3587 96.7475 12.48C96.6349 12.5927 96.4962 12.6967 96.3315 12.792C96.1669 12.8787 95.9762 12.9523 95.7595 13.013C95.5429 13.0737 95.2959 13.104 95.0185 13.104C94.7412 13.104 94.4812 13.0607 94.2385 12.974C94.0045 12.8873 93.8009 12.766 93.6275 12.61C93.4542 12.4453 93.3155 12.2503 93.2115 12.025C93.1162 11.7997 93.0685 11.544 93.0685 11.258C93.0685 10.8767 93.1465 10.5603 93.3025 10.309C93.4585 10.049 93.6752 9.84533 93.9525 9.698C94.2385 9.542 94.5765 9.43367 94.9665 9.373C95.3652 9.30367 95.8029 9.269 96.2795 9.269C96.4009 9.269 96.5179 9.269 96.6305 9.269C96.7519 9.269 96.8732 9.27767 96.9945 9.295C97.0205 9.035 97.0335 8.801 97.0335 8.593C97.0335 8.11633 96.9382 7.78267 96.7475 7.592C96.5569 7.40133 96.2102 7.306 95.7075 7.306C95.5602 7.306 95.3999 7.319 95.2265 7.345C95.0619 7.36233 94.8885 7.39267 94.7065 7.436C94.5332 7.47067 94.3642 7.51833 94.1995 7.579C94.0435 7.631 93.9049 7.69167 93.7835 7.761L93.4585 6.981ZM95.3045 12.194C95.5472 12.194 95.7639 12.1637 95.9545 12.103C96.1452 12.0337 96.3099 11.9513 96.4485 11.856C96.5872 11.752 96.6999 11.6393 96.7865 11.518C96.8819 11.3967 96.9512 11.2797 96.9945 11.167V10.088C96.8732 10.0793 96.7475 10.075 96.6175 10.075C96.4962 10.0663 96.3749 10.062 96.2535 10.062C95.9849 10.062 95.7205 10.0793 95.4605 10.114C95.2092 10.14 94.9839 10.1963 94.7845 10.283C94.5939 10.361 94.4379 10.4737 94.3165 10.621C94.2039 10.7597 94.1475 10.9373 94.1475 11.154C94.1475 11.4573 94.2559 11.7087 94.4725 11.908C94.6892 12.0987 94.9665 12.194 95.3045 12.194Z" fill="black"/>
<path d="M133.333 14.677H132.592L132.397 13H126.014L125.819 14.677H125.065V12.038H125.988C126.057 11.9427 126.161 11.7217 126.3 11.375C126.447 11.0197 126.59 10.517 126.729 9.867C126.876 9.20833 127.006 8.38933 127.119 7.41C127.232 6.422 127.288 5.252 127.288 3.9H132.15V12.038H133.333V14.677ZM131.071 12.038V4.862H128.302C128.276 5.81533 128.224 6.67333 128.146 7.436C128.077 8.19867 127.99 8.87467 127.886 9.464C127.782 10.0447 127.665 10.5473 127.535 10.972C127.405 11.3967 127.271 11.752 127.132 12.038H131.071ZM134.029 9.75C134.029 8.64933 134.271 7.80867 134.757 7.228C135.251 6.63867 135.957 6.344 136.876 6.344C137.361 6.344 137.781 6.42633 138.137 6.591C138.501 6.747 138.8 6.97667 139.034 7.28C139.268 7.57467 139.441 7.93433 139.554 8.359C139.666 8.775 139.723 9.23867 139.723 9.75C139.723 10.8507 139.476 11.6957 138.982 12.285C138.496 12.8657 137.794 13.156 136.876 13.156C136.39 13.156 135.966 13.078 135.602 12.922C135.246 12.7573 134.952 12.5277 134.718 12.233C134.484 11.9297 134.31 11.57 134.198 11.154C134.085 10.7293 134.029 10.2613 134.029 9.75ZM135.108 9.75C135.108 10.0793 135.138 10.3957 135.199 10.699C135.268 11.0023 135.372 11.2667 135.511 11.492C135.649 11.7173 135.831 11.8993 136.057 12.038C136.282 12.1767 136.555 12.246 136.876 12.246C138.054 12.2547 138.644 11.4227 138.644 9.75C138.644 9.412 138.609 9.09133 138.54 8.788C138.479 8.48467 138.379 8.22033 138.241 7.995C138.102 7.76967 137.92 7.592 137.695 7.462C137.469 7.32333 137.196 7.254 136.876 7.254C135.697 7.24533 135.108 8.07733 135.108 9.75ZM143 10.075H142.402V13H141.362V6.5H142.402V9.438L142.961 9.256L145.041 6.5H146.172L144.157 9.113L143.611 9.542L144.287 10.062L146.458 13H145.171L143 10.075ZM149.481 10.712L149.845 11.96H149.91L150.196 10.699L151.457 6.5H152.51L150.586 12.337C150.439 12.7617 150.292 13.1733 150.144 13.572C150.006 13.9707 149.85 14.326 149.676 14.638C149.503 14.95 149.308 15.197 149.091 15.379C148.875 15.5697 148.623 15.665 148.337 15.665C148.025 15.665 147.77 15.6217 147.57 15.535L147.752 14.638C147.865 14.6813 147.973 14.703 148.077 14.703C148.32 14.703 148.554 14.573 148.779 14.313C149.005 14.0617 149.191 13.624 149.338 13L146.725 6.5H147.921L149.481 10.712ZM158.995 9.139L159.073 7.904H159.008L158.54 8.905L156.967 11.453H156.603L154.965 8.905L154.536 7.904H154.484L154.588 9.126V13H153.626V6.5H154.653L156.473 9.412L156.85 10.166H156.876L157.266 9.386L158.969 6.5H160.009V13H158.995V9.139ZM166.75 12.48C166.49 12.688 166.161 12.8527 165.762 12.974C165.372 13.0953 164.956 13.156 164.514 13.156C164.02 13.156 163.591 13.078 163.227 12.922C162.863 12.7573 162.564 12.5277 162.33 12.233C162.096 11.9297 161.923 11.57 161.81 11.154C161.697 10.738 161.641 10.27 161.641 9.75C161.641 8.64067 161.888 7.79567 162.382 7.215C162.876 6.63433 163.582 6.344 164.501 6.344C164.796 6.344 165.09 6.37867 165.385 6.448C165.68 6.50867 165.944 6.63 166.178 6.812C166.412 6.994 166.603 7.254 166.75 7.592C166.897 7.92133 166.971 8.359 166.971 8.905C166.971 9.191 166.945 9.50733 166.893 9.854H162.72C162.72 10.2353 162.759 10.5733 162.837 10.868C162.915 11.1627 163.036 11.414 163.201 11.622C163.366 11.8213 163.578 11.9773 163.838 12.09C164.107 12.194 164.432 12.246 164.813 12.246C165.108 12.246 165.402 12.194 165.697 12.09C165.992 11.986 166.213 11.8647 166.36 11.726L166.75 12.48ZM164.514 7.254C164.003 7.254 163.591 7.38833 163.279 7.657C162.976 7.92567 162.794 8.385 162.733 9.035H165.957C165.957 8.37633 165.831 7.917 165.58 7.657C165.329 7.38833 164.973 7.254 164.514 7.254ZM172.584 10.127H169.646V13H168.606V6.5H169.646V9.217H172.584V6.5H173.624V13H172.584V10.127ZM179.774 7.41H177.733V13H176.693V7.41H174.652V6.5H179.774V7.41ZM181.847 12.09C182.167 12.142 182.475 12.168 182.77 12.168C183.316 12.168 183.697 12.064 183.914 11.856C184.13 11.6393 184.239 11.336 184.239 10.946C184.239 10.5993 184.13 10.3133 183.914 10.088C183.706 9.86267 183.337 9.75 182.809 9.75C182.661 9.75 182.501 9.75433 182.328 9.763C182.154 9.77167 181.994 9.79767 181.847 9.841V12.09ZM181.847 8.983C182.055 8.94833 182.254 8.92667 182.445 8.918C182.635 8.90067 182.817 8.892 182.991 8.892C183.433 8.892 183.801 8.944 184.096 9.048C184.399 9.14333 184.642 9.27767 184.824 9.451C185.006 9.62433 185.131 9.83233 185.201 10.075C185.279 10.309 185.318 10.5603 185.318 10.829C185.318 11.6177 185.097 12.1897 184.655 12.545C184.221 12.9003 183.515 13.078 182.536 13.078C181.981 13.078 181.405 13.052 180.807 13V6.5H181.847V8.983ZM186.345 6.5H187.385V13H186.345V6.5Z" fill="black"/>
<path d="M219.928 4.862H217.211C217.124 6.59533 217.007 8.03833 216.86 9.191C216.721 10.335 216.509 11.2277 216.223 11.869C216.032 12.285 215.807 12.5883 215.547 12.779C215.287 12.9697 215.005 13.065 214.702 13.065C214.546 13.065 214.412 13.052 214.299 13.026C214.186 13.0087 214.078 12.9783 213.974 12.935L214.117 11.999C214.204 12.025 214.295 12.038 214.39 12.038C214.537 12.038 214.68 11.9903 214.819 11.895C214.966 11.7997 215.109 11.622 215.248 11.362C215.369 11.128 215.482 10.816 215.586 10.426C215.699 10.036 215.794 9.542 215.872 8.944C215.959 8.346 216.028 7.63533 216.08 6.812C216.132 5.98 216.171 5.00933 216.197 3.9H221.007V13H219.928V4.862ZM227.169 9.152L227.208 8.346H227.169L226.636 9.178L223.711 13H223.113V6.5H224.153V10.465L224.114 11.232H224.166L224.673 10.426L227.598 6.5H228.209V13H227.169V9.152ZM236.047 14.651H235.345L235.15 13H230.21V6.5H231.25V12.09H234.071V6.5H235.111V12.09H236.047V14.651ZM242.077 12.48C241.817 12.688 241.488 12.8527 241.089 12.974C240.699 13.0953 240.283 13.156 239.841 13.156C239.347 13.156 238.918 13.078 238.554 12.922C238.19 12.7573 237.891 12.5277 237.657 12.233C237.423 11.9297 237.25 11.57 237.137 11.154C237.024 10.738 236.968 10.27 236.968 9.75C236.968 8.64067 237.215 7.79567 237.709 7.215C238.203 6.63433 238.909 6.344 239.828 6.344C240.123 6.344 240.417 6.37867 240.712 6.448C241.007 6.50867 241.271 6.63 241.505 6.812C241.739 6.994 241.93 7.254 242.077 7.592C242.224 7.92133 242.298 8.359 242.298 8.905C242.298 9.191 242.272 9.50733 242.22 9.854H238.047C238.047 10.2353 238.086 10.5733 238.164 10.868C238.242 11.1627 238.363 11.414 238.528 11.622C238.693 11.8213 238.905 11.9773 239.165 12.09C239.434 12.194 239.759 12.246 240.14 12.246C240.435 12.246 240.729 12.194 241.024 12.09C241.319 11.986 241.54 11.8647 241.687 11.726L242.077 12.48ZM239.841 7.254C239.33 7.254 238.918 7.38833 238.606 7.657C238.303 7.92567 238.121 8.385 238.06 9.035H241.284C241.284 8.37633 241.158 7.917 240.907 7.657C240.656 7.38833 240.3 7.254 239.841 7.254ZM247.912 10.127H244.974V13H243.934V6.5H244.974V9.217H247.912V6.5H248.952V13H247.912V10.127ZM251.578 10.101V9.256H252.488C252.644 9.256 252.796 9.23 252.943 9.178C253.099 9.126 253.238 9.05667 253.359 8.97C253.48 8.87467 253.576 8.76633 253.645 8.645C253.723 8.515 253.762 8.38067 253.762 8.242C253.762 7.904 253.645 7.66567 253.411 7.527C253.177 7.38833 252.826 7.319 252.358 7.319C252.02 7.319 251.708 7.371 251.422 7.475C251.145 7.579 250.928 7.67867 250.772 7.774L250.473 6.968C250.733 6.82067 251.036 6.69067 251.383 6.578C251.738 6.46533 252.159 6.409 252.644 6.409C254.083 6.409 254.802 6.942 254.802 8.008C254.802 8.31133 254.702 8.61033 254.503 8.905C254.312 9.191 254.035 9.39467 253.671 9.516V9.568C254.182 9.66333 254.538 9.84533 254.737 10.114C254.945 10.3827 255.049 10.738 255.049 11.18C255.049 11.4573 254.993 11.713 254.88 11.947C254.767 12.181 254.598 12.3847 254.373 12.558C254.148 12.7313 253.862 12.87 253.515 12.974C253.177 13.0693 252.783 13.117 252.332 13.117C251.89 13.117 251.522 13.078 251.227 13C250.941 12.922 250.681 12.8267 250.447 12.714L250.746 11.856C250.945 11.9687 251.184 12.0553 251.461 12.116C251.747 12.1767 252.055 12.207 252.384 12.207C252.913 12.207 253.316 12.116 253.593 11.934C253.87 11.752 254.009 11.4747 254.009 11.102C254.009 10.79 253.879 10.5473 253.619 10.374C253.359 10.192 252.93 10.101 252.332 10.101H251.578ZM260.748 9.152L260.787 8.346H260.748L260.215 9.178L257.29 13H256.692V6.5H257.732V10.465L257.693 11.232H257.745L258.252 10.426L261.177 6.5H261.788V13H260.748V9.152ZM263.425 9.75C263.425 8.64933 263.668 7.80867 264.153 7.228C264.647 6.63867 265.353 6.344 266.272 6.344C266.757 6.344 267.178 6.42633 267.533 6.591C267.897 6.747 268.196 6.97667 268.43 7.28C268.664 7.57467 268.837 7.93433 268.95 8.359C269.063 8.775 269.119 9.23867 269.119 9.75C269.119 10.8507 268.872 11.6957 268.378 12.285C267.893 12.8657 267.191 13.156 266.272 13.156C265.787 13.156 265.362 13.078 264.998 12.922C264.643 12.7573 264.348 12.5277 264.114 12.233C263.88 11.9297 263.707 11.57 263.594 11.154C263.481 10.7293 263.425 10.2613 263.425 9.75ZM264.504 9.75C264.504 10.0793 264.534 10.3957 264.595 10.699C264.664 11.0023 264.768 11.2667 264.907 11.492C265.046 11.7173 265.228 11.8993 265.453 12.038C265.678 12.1767 265.951 12.246 266.272 12.246C267.451 12.2547 268.04 11.4227 268.04 9.75C268.04 9.412 268.005 9.09133 267.936 8.788C267.875 8.48467 267.776 8.22033 267.637 7.995C267.498 7.76967 267.316 7.592 267.091 7.462C266.866 7.32333 266.593 7.254 266.272 7.254C265.093 7.24533 264.504 8.07733 264.504 9.75ZM274.737 10.127H271.799V13H270.759V6.5H271.799V9.217H274.737V6.5H275.777V13H274.737V10.127ZM281.757 10.127H278.819V13H277.779V6.5H278.819V9.217H281.757V6.5H282.797V13H281.757V10.127ZM285.84 12.09C286.16 12.142 286.468 12.168 286.763 12.168C287.309 12.168 287.69 12.064 287.907 11.856C288.123 11.6393 288.232 11.336 288.232 10.946C288.232 10.5993 288.123 10.3133 287.907 10.088C287.699 9.86267 287.33 9.75 286.802 9.75C286.654 9.75 286.494 9.75433 286.321 9.763C286.147 9.77167 285.987 9.79767 285.84 9.841V12.09ZM285.84 8.983C286.048 8.94833 286.247 8.92667 286.438 8.918C286.628 8.90067 286.81 8.892 286.984 8.892C287.426 8.892 287.794 8.944 288.089 9.048C288.392 9.14333 288.635 9.27767 288.817 9.451C288.999 9.62433 289.124 9.83233 289.194 10.075C289.272 10.309 289.311 10.5603 289.311 10.829C289.311 11.6177 289.09 12.1897 288.648 12.545C288.214 12.9003 287.508 13.078 286.529 13.078C285.974 13.078 285.398 13.052 284.8 13V6.5H285.84V8.983ZM290.338 6.5H291.378V13H290.338V6.5ZM297.438 9.152L297.477 8.346H297.438L296.905 9.178L293.98 13H293.382V6.5H294.422V10.465L294.383 11.232H294.435L294.942 10.426L297.867 6.5H298.478V13H297.438V9.152ZM294.877 3.874C294.964 4.27267 295.111 4.55 295.319 4.706C295.536 4.862 295.783 4.94 296.06 4.94C296.337 4.94 296.584 4.85767 296.801 4.693C297.018 4.52833 297.165 4.25967 297.243 3.887L298.023 4.134C297.945 4.63667 297.72 5.02233 297.347 5.291C296.983 5.55967 296.545 5.694 296.034 5.694C295.8 5.694 295.566 5.66367 295.332 5.603C295.107 5.54233 294.903 5.45133 294.721 5.33C294.539 5.20867 294.383 5.05267 294.253 4.862C294.123 4.67133 294.036 4.446 293.993 4.186L294.877 3.874ZM309.69 14.651H308.988L308.793 13H303.905L303.71 14.651H303.008V12.09H303.775C303.845 11.9947 303.936 11.8257 304.048 11.583C304.161 11.3317 304.269 10.985 304.373 10.543C304.486 10.0923 304.581 9.53767 304.659 8.879C304.746 8.21167 304.798 7.41867 304.815 6.5H308.741V12.09H309.69V14.651ZM307.701 12.09V7.41H305.751C305.734 7.774 305.704 8.17267 305.66 8.606C305.617 9.03067 305.556 9.45967 305.478 9.893C305.409 10.3177 305.318 10.7207 305.205 11.102C305.093 11.4833 304.963 11.8127 304.815 12.09H307.701ZM310.614 9.75C310.614 8.64933 310.856 7.80867 311.342 7.228C311.836 6.63867 312.542 6.344 313.461 6.344C313.946 6.344 314.366 6.42633 314.722 6.591C315.086 6.747 315.385 6.97667 315.619 7.28C315.853 7.57467 316.026 7.93433 316.139 8.359C316.251 8.775 316.308 9.23867 316.308 9.75C316.308 10.8507 316.061 11.6957 315.567 12.285C315.081 12.8657 314.379 13.156 313.461 13.156C312.975 13.156 312.551 13.078 312.187 12.922C311.831 12.7573 311.537 12.5277 311.303 12.233C311.069 11.9297 310.895 11.57 310.783 11.154C310.67 10.7293 310.614 10.2613 310.614 9.75ZM311.693 9.75C311.693 10.0793 311.723 10.3957 311.784 10.699C311.853 11.0023 311.957 11.2667 312.096 11.492C312.234 11.7173 312.416 11.8993 312.642 12.038C312.867 12.1767 313.14 12.246 313.461 12.246C314.639 12.2547 315.229 11.4227 315.229 9.75C315.229 9.412 315.194 9.09133 315.125 8.788C315.064 8.48467 314.964 8.22033 314.826 7.995C314.687 7.76967 314.505 7.592 314.28 7.462C314.054 7.32333 313.781 7.254 313.461 7.254C312.282 7.24533 311.693 8.07733 311.693 9.75ZM321.743 7.41H318.987V13H317.947V6.5H321.743V7.41ZM322.179 9.75C322.179 8.64933 322.422 7.80867 322.907 7.228C323.401 6.63867 324.107 6.344 325.026 6.344C325.511 6.344 325.932 6.42633 326.287 6.591C326.651 6.747 326.95 6.97667 327.184 7.28C327.418 7.57467 327.591 7.93433 327.704 8.359C327.817 8.775 327.873 9.23867 327.873 9.75C327.873 10.8507 327.626 11.6957 327.132 12.285C326.647 12.8657 325.945 13.156 325.026 13.156C324.541 13.156 324.116 13.078 323.752 12.922C323.397 12.7573 323.102 12.5277 322.868 12.233C322.634 11.9297 322.461 11.57 322.348 11.154C322.235 10.7293 322.179 10.2613 322.179 9.75ZM323.258 9.75C323.258 10.0793 323.288 10.3957 323.349 10.699C323.418 11.0023 323.522 11.2667 323.661 11.492C323.8 11.7173 323.982 11.8993 324.207 12.038C324.432 12.1767 324.705 12.246 325.026 12.246C326.205 12.2547 326.794 11.4227 326.794 9.75C326.794 9.412 326.759 9.09133 326.69 8.788C326.629 8.48467 326.53 8.22033 326.391 7.995C326.252 7.76967 326.07 7.592 325.845 7.462C325.62 7.32333 325.347 7.254 325.026 7.254C323.847 7.24533 323.258 8.07733 323.258 9.75ZM329.513 6.513C329.816 6.49567 330.132 6.474 330.462 6.448C330.8 6.422 331.216 6.409 331.71 6.409C332.568 6.409 333.183 6.54333 333.556 6.812C333.928 7.072 334.115 7.47067 334.115 8.008C334.115 8.31133 334.024 8.61033 333.842 8.905C333.668 9.191 333.378 9.40333 332.971 9.542V9.594C333.482 9.68933 333.842 9.867 334.05 10.127C334.258 10.387 334.362 10.7337 334.362 11.167C334.362 11.843 334.119 12.3327 333.634 12.636C333.148 12.9393 332.42 13.091 331.45 13.091C331.086 13.091 330.748 13.078 330.436 13.052C330.124 13.0347 329.816 13.013 329.513 12.987V6.513ZM330.553 12.129C330.717 12.1463 330.878 12.1593 331.034 12.168C331.198 12.1767 331.389 12.181 331.606 12.181C332.186 12.181 332.615 12.0987 332.893 11.934C333.179 11.7693 333.322 11.4877 333.322 11.089C333.322 10.777 333.2 10.5257 332.958 10.335C332.724 10.1357 332.303 10.036 331.697 10.036H330.553V12.129ZM331.827 9.243C331.983 9.243 332.134 9.217 332.282 9.165C332.429 9.113 332.559 9.04367 332.672 8.957C332.793 8.86167 332.888 8.75333 332.958 8.632C333.036 8.51067 333.075 8.38067 333.075 8.242C333.075 7.89533 332.971 7.657 332.763 7.527C332.555 7.38833 332.191 7.319 331.671 7.319C331.393 7.319 331.172 7.32333 331.008 7.332C330.852 7.34067 330.7 7.34933 330.553 7.358V9.243H331.827ZM335.636 9.75C335.636 8.64933 335.879 7.80867 336.364 7.228C336.858 6.63867 337.564 6.344 338.483 6.344C338.968 6.344 339.389 6.42633 339.744 6.591C340.108 6.747 340.407 6.97667 340.641 7.28C340.875 7.57467 341.048 7.93433 341.161 8.359C341.274 8.775 341.33 9.23867 341.33 9.75C341.33 10.8507 341.083 11.6957 340.589 12.285C340.104 12.8657 339.402 13.156 338.483 13.156C337.998 13.156 337.573 13.078 337.209 12.922C336.854 12.7573 336.559 12.5277 336.325 12.233C336.091 11.9297 335.918 11.57 335.805 11.154C335.692 10.7293 335.636 10.2613 335.636 9.75ZM336.715 9.75C336.715 10.0793 336.745 10.3957 336.806 10.699C336.875 11.0023 336.979 11.2667 337.118 11.492C337.257 11.7173 337.439 11.8993 337.664 12.038C337.889 12.1767 338.162 12.246 338.483 12.246C339.662 12.2547 340.251 11.4227 340.251 9.75C340.251 9.412 340.216 9.09133 340.147 8.788C340.086 8.48467 339.987 8.22033 339.848 7.995C339.709 7.76967 339.527 7.592 339.302 7.462C339.077 7.32333 338.804 7.254 338.483 7.254C337.304 7.24533 336.715 8.07733 336.715 9.75ZM342.97 6.5H343.685L343.88 7.28H343.932C344.131 6.97667 344.387 6.747 344.699 6.591C345.019 6.42633 345.383 6.344 345.791 6.344C346.657 6.344 347.303 6.59967 347.728 7.111C348.152 7.62233 348.365 8.45867 348.365 9.62C348.365 10.166 348.291 10.66 348.144 11.102C348.005 11.5353 347.806 11.9037 347.546 12.207C347.286 12.5103 346.969 12.7443 346.597 12.909C346.233 13.0737 345.825 13.156 345.375 13.156C345.054 13.156 344.798 13.1343 344.608 13.091C344.426 13.0563 344.226 12.9913 344.01 12.896V15.6H342.97V6.5ZM345.596 7.254C345.154 7.254 344.803 7.371 344.543 7.605C344.291 7.83033 344.114 8.177 344.01 8.645V11.869C344.166 11.9903 344.343 12.0857 344.543 12.155C344.742 12.2157 345.006 12.246 345.336 12.246C345.934 12.246 346.406 12.025 346.753 11.583C347.108 11.1323 347.286 10.4737 347.286 9.607C347.286 9.25167 347.255 8.931 347.195 8.645C347.134 8.35033 347.034 8.10333 346.896 7.904C346.766 7.696 346.592 7.53567 346.376 7.423C346.168 7.31033 345.908 7.254 345.596 7.254Z" fill="#8F8F8F"/>
<circle cx="112.5" cy="8.5" r="2.5" fill="black"/>
<circle cx="201.5" cy="8.5" r="2.5" fill="black"/>
</svg>
